<svg width="48" height="50" viewBox="0 0 48 50" fill="none" xmlns="http://www.w3.org/2000/svg">
<path d="M3.44796 26.2005C2.743 25.5301 2.08857 24.8834 1.40711 24.2687C1.14745 24.0342 1.07578 23.7784 1.05581 23.4444C0.743279 18.1926 0.87957 12.9349 0.819649 7.68081C0.811425 6.93343 0.772652 6.18606 0.72918 5.43868C0.703331 5.00282 0.806725 4.63446 1.11103 4.30874C1.65972 3.72245 2.19196 3.12076 2.72773 2.52381C3.31519 1.87001 4.09417 1.63667 4.92132 1.58693C5.78019 1.53481 6.64376 1.58693 7.50498 1.55376C9.10523 1.49099 10.7067 1.414 12.3046 1.31096C12.8673 1.27424 13.4219 1.12974 13.9835 1.05867C15.7741 0.832447 17.4672 1.18067 19.1003 1.92449C20.4433 2.53684 21.5312 3.45595 22.4712 4.58353C22.8801 5.07388 23.3453 5.51804 23.8188 6.01787C24.0961 5.7265 24.2911 5.48014 24.5261 5.28116C25.1958 4.71263 25.8456 4.11213 26.567 3.61822C28.0944 2.57 29.6371 1.53955 31.2256 0.589639C31.7555 0.273397 32.4381 0.203516 33.0608 0.0637532C33.3416 0.000978589 33.6483 0.0625688 33.9396 0.0341426C35.5481 -0.123386 37.0168 0.272213 38.4243 1.05512C40.7789 2.3651 42.9713 3.86932 44.6644 6.01076C45.4222 6.97015 45.9662 8.05153 46.348 9.21701C47.0013 11.2057 47.1822 13.2595 47.0095 15.3227C46.8051 17.7615 46.0578 20.0296 44.4846 21.9638C44.1039 22.4317 43.7773 22.9457 43.4095 23.4621C43.4941 23.5806 43.5611 23.6954 43.6481 23.7926C44.3753 24.6122 45.1167 25.4188 45.8252 26.2538C45.9873 26.4445 46.126 26.7335 46.1236 26.9763C46.1036 30.2643 46.0508 33.5534 46.0191 36.8414C45.9932 39.5206 45.985 42.1986 45.9674 44.8778C45.9662 45.1135 45.9897 45.3563 45.9439 45.5849C45.9039 45.7874 45.8322 46.0266 45.6912 46.1569C45.2307 46.5786 44.7478 46.9801 44.2437 47.3497C43.3508 48.0023 42.2898 48.1207 41.2371 48.1835C39.3455 48.296 37.4421 48.2676 35.5622 48.4678C34.0936 48.6241 32.6308 48.6644 31.1703 48.5992C30.1517 48.553 29.1236 48.3623 28.1355 48.1018C27.0546 47.8163 26.2051 47.0903 25.4614 46.2671C24.7917 45.5268 24.1537 44.7593 23.4981 44.0072C23.4358 43.9361 23.3477 43.8888 23.222 43.7928C22.7802 44.2097 22.3349 44.6124 21.9096 45.0341C20.5196 46.4069 18.9276 47.5036 17.2087 48.3991C16.2652 48.8906 15.2724 49.3276 14.2549 49.6238C13.5617 49.8263 12.7851 49.7896 12.0472 49.7777C10.4364 49.7493 9.04178 49.0552 7.68709 48.2557C6.00107 47.262 4.3738 46.1925 2.99209 44.7842C2.12499 43.9018 1.54105 42.8358 1.10046 41.6988C0.692757 40.6446 0.394326 39.5632 0.189889 38.4345C-0.0591956 37.0546 -0.0227727 35.6854 0.0712214 34.3257C0.140542 33.326 0.476571 32.337 0.756203 31.3611C1.26847 29.5714 2.23426 28.0115 3.28229 26.499C3.33634 26.4208 3.37746 26.332 3.45148 26.2005H3.44796ZM34.3814 1.84276C33.8139 1.84276 33.2464 1.8475 32.6801 1.84039C32.3758 1.83684 32.1772 1.96713 32.0186 2.23244C31.8823 2.46222 31.7226 2.71213 31.5087 2.85308C30.9236 3.23802 30.3138 3.58624 29.697 3.91788C28.3623 4.63683 27.2907 5.6353 26.4906 6.92633C25.7927 8.05272 25.3733 9.27268 25.1371 10.5827C24.8598 12.1236 24.9162 13.6562 25.2781 15.1474C25.6834 16.821 26.473 18.3087 27.7313 19.5488C29.066 20.8635 30.6804 21.5955 32.444 21.9591C34.2592 22.3334 36.0827 22.2161 37.8545 21.5481C39.5264 20.918 40.8975 19.8709 42.0055 18.5053C43.3637 16.8305 43.8231 14.8051 43.9253 12.698C43.9559 12.0596 43.8372 11.4058 43.7291 10.7698C43.6116 10.0793 43.4894 9.37809 43.2568 8.72192C42.8244 7.50314 42.0043 6.51415 41.1478 5.57608C40.3418 4.69368 39.4195 3.95105 38.2739 3.52702C37.5725 3.26763 36.9181 2.92059 36.5891 2.17559C36.4822 1.93396 36.2895 1.83447 36.024 1.83921C35.4764 1.84869 34.9289 1.84158 34.3814 1.84158V1.84276ZM14.7742 44.8505C14.8941 44.1553 15.4005 43.8663 15.9915 43.6365C17.768 42.9448 19.1826 41.7698 20.3034 40.2407C21.0366 39.2399 21.5171 38.1182 21.8038 36.8947C22.0294 35.9318 22.1692 34.9641 22.1058 33.9905C22.04 32.9826 21.8861 31.9817 21.5336 31.014C20.804 29.0064 19.5679 27.4311 17.7691 26.2976C16.4791 25.4851 15.0163 25.2068 13.5523 25.0611C12.1224 24.9178 10.689 25.0256 9.27442 25.4413C7.59075 25.9364 6.25721 26.9017 5.24677 28.2875C3.90148 30.1316 3.22825 32.2221 3.21767 34.5318C3.21297 35.4995 3.25645 36.4636 3.53138 37.378C3.90266 38.6121 4.40552 39.7989 5.26557 40.801C6.3559 42.0718 7.63892 43.0561 9.20392 43.6578C9.67037 43.8366 10.071 44.0972 10.2708 44.5947C10.3189 44.7143 10.407 44.8695 10.5104 44.9038C10.8418 45.014 11.1872 45.1395 11.5303 45.1443C12.5995 45.1596 13.6839 45.2888 14.7766 44.8505H14.7742ZM4.33973 3.13853V21.7589H8.89492C8.91136 21.4983 8.93486 21.2875 8.93486 21.0755C8.93839 19.8153 8.91959 18.5539 8.93956 17.2948C8.98186 14.6701 8.85144 12.03 9.52938 9.45271C9.81606 8.36185 10.346 7.50077 11.4809 7.07201C12.1777 6.80907 12.8662 6.91804 13.5594 6.87184C14.7554 6.7913 15.4921 7.62159 15.666 8.51938C15.8693 9.57115 16.0925 10.6383 16.1148 11.7031C16.1806 14.8525 16.1501 18.0043 16.1607 21.156C16.1607 21.3846 16.1806 21.612 16.19 21.8241C16.3158 21.8572 16.3721 21.8856 16.4274 21.8845C17.6387 21.8454 18.8501 21.8027 20.0614 21.7625C20.8416 21.7364 20.9414 21.6417 20.9403 20.867C20.9356 17.283 20.9297 13.6989 20.9238 10.1136C20.9215 8.81194 20.7476 7.53038 20.4503 6.26778C20.1895 5.1639 19.5738 4.3194 18.5587 3.77812C17.6223 3.27947 16.6459 2.95731 15.5885 2.81755C14.4135 2.6612 13.3079 2.85071 12.2247 3.27592C11.1437 3.69995 10.3401 4.50891 9.50118 5.26931C9.39778 5.36288 9.24269 5.39841 9.1111 5.46119C9.05353 5.32735 8.95484 5.19588 8.94426 5.0573C8.91019 4.62617 8.93486 4.1903 8.88552 3.76154C8.83029 3.28303 8.67403 3.15985 8.18996 3.14919C7.5837 3.13497 6.97626 3.13971 6.37 3.13853C5.70852 3.13734 5.04703 3.13853 4.33855 3.13853H4.33973ZM38.187 41.4334L38.3374 41.5377C38.3491 41.7284 38.3668 41.9202 38.3715 42.1109C38.3785 42.3869 38.3621 42.6629 38.382 42.9377C38.4196 43.4636 38.59 43.6388 39.0999 43.6649C39.9976 43.7099 40.8952 43.7549 41.794 43.7739C42.4332 43.7869 42.4684 43.7419 42.4684 43.1165C42.472 37.9003 42.4167 32.6841 42.6729 27.4714C42.6999 26.9112 42.7492 26.3509 42.7939 25.7113C42.7058 25.6675 42.5366 25.5112 42.365 25.5088C40.9645 25.4887 39.564 25.4982 38.1353 25.4982C38.0542 26.2171 37.9356 26.8567 37.9179 27.4975C37.8416 30.4088 37.8063 33.3213 37.7311 36.2326C37.6994 37.4597 37.4597 38.6323 36.3729 39.4045C35.9159 39.729 35.44 40.0571 34.9254 40.2656C33.4485 40.8614 31.3113 40.3615 31.074 38.0649C30.9483 36.8521 30.8707 35.6321 30.839 34.4133C30.7662 31.6584 30.7368 28.9022 30.6863 26.1472C30.6827 25.9388 30.6534 25.7315 30.6357 25.5325H25.9125C25.9125 25.7777 25.9055 25.9719 25.9137 26.165C25.9419 26.8733 25.9913 27.5804 26.0042 28.2887C26.0465 30.6315 26.0618 32.9743 26.1146 35.3159C26.144 36.5939 26.211 37.8719 26.2956 39.1475C26.3261 39.613 26.4154 40.0832 26.5482 40.5297C26.9042 41.7248 27.6867 42.6191 28.663 43.3416C29.153 43.704 29.7005 43.9586 30.3479 43.8994C30.5782 43.8781 30.8155 43.9432 31.0493 43.9397C32.142 43.9207 33.2335 43.8923 34.3262 43.8615C34.4002 43.8591 34.4719 43.8106 34.5459 43.7869C35.4165 43.5097 36.1426 42.991 36.8452 42.4236C37.2764 42.0754 37.737 41.7639 38.1835 41.4358L38.187 41.4334Z" fill="black"/>
</svg>
